<svg xmlns="http://www.w3.org/2000/svg" viewBox="0 0 416.79 209.29">
  <defs>
    <style>
      .cls-1 {
        font-size: 45.61px;
        font-family: Viga-Regular, Viga;
      }
    </style>
  </defs>
  <g id="Layer_2" data-name="Layer 2">
    <g id="Layer_1-2" data-name="Layer 1">
      <g>
        <text class="cls-1" transform="translate(40.82 194.29)">WILSON WORKS</text>
        <path d="M179.6,79.65l3.46-8.39L188,59.6l3.46,8.2L186.7,79.65,183.24,88l-15.3,36.48a5,5,0,0,1-4.61,3.07h-5.56a5,5,0,0,1-4.78-3.53L114.71,0h15.81a5,5,0,0,1,4.78,3.53l26.44,86.14,3.46,10.57-3.46,8.57h-1.1L157.73,99,129.94,8.5a3,3,0,0,0-2.86-2.12h-3.44l7.29,24.42,26.61,85.48,1,3.49a2,2,0,0,0,1.92,1.43h1.78ZM148.05,3.55,169,72.9l19.32-44.47,43.19,99.33h-3.83a5,5,0,0,1-4.59-3L188.35,45,168.3,93,140.05,0h3.21A5,5,0,0,1,148.05,3.55ZM228.81,47.2,242,3.56A5,5,0,0,1,246.74,0h28.54L236.83,126.12l-1.65-3.64L194.36,27.89l-5.83-13.31L169.76,58l-2.92-9.66L186.16,3.46h2.77a3,3,0,0,1,2.75,1.81l44,101.71L246.3,72.54l18.59-60.88,1.64-5.28H251.64a5,5,0,0,0-4.78,3.53L232.63,56.32ZM256,11.3h3.22L234.82,91,196.91,3.46h3.83a5,5,0,0,1,4.59,3L229.9,63.06l3.83,9.11,17.5-57.33A5,5,0,0,1,256,11.3Z"/>
      </g>
    </g>
  </g>
</svg>
