<svg xmlns="http://www.w3.org/2000/svg" width="80.58" height="64.115" viewBox="0 0 80.58 64.115">
  <g id="Layer_2" data-name="Layer 2" transform="translate(868.29 4)">
    <g id="Layer_1" data-name="Layer 1" transform="translate(-868.29 -4)">
      <g id="Group_2" data-name="Group 2" transform="translate(0 0)">
        <path id="Path_2" data-name="Path 2" d="M147.274,39.972l1.736-4.21,2.479-5.851,1.736,4.115-2.389,5.947-1.736,4.19-7.678,18.307a2.509,2.509,0,0,1-2.313,1.541h-2.79a2.509,2.509,0,0,1-2.4-1.772L114.71,0h7.934a2.509,2.509,0,0,1,2.4,1.772L138.312,45l1.736,5.3-1.736,4.3h-.552l-1.46-4.923L122.353,4.266A1.506,1.506,0,0,0,120.918,3.2h-1.726l3.658,12.255,13.354,42.9.5,1.751a1,1,0,0,0,.964.718h.893ZM131.441,1.782l10.514,34.8,9.7-22.317,21.674,49.848H171.4a2.509,2.509,0,0,1-2.3-1.506L151.665,22.583,141.6,46.671,127.427,0h1.611a2.509,2.509,0,0,1,2.4,1.782ZM171.97,23.687l6.619-21.9A2.509,2.509,0,0,1,180.968,0H195.29l-19.3,63.292-.828-1.827L154.682,14l-2.926-6.679-9.42,21.79-1.465-4.848,9.7-22.523h1.39a1.505,1.505,0,0,1,1.38.908l22.081,51.042,5.33-17.283,9.329-30.552L190.9,3.2h-7.472a2.509,2.509,0,0,0-2.4,1.772l-7.141,23.29ZM185.615,5.671h1.616l-12.245,40L155.961,1.736h1.922a2.509,2.509,0,0,1,2.3,1.506l12.33,28.4,1.922,4.572,8.782-28.77a2.509,2.509,0,0,1,2.394-1.777Z" transform="translate(-114.71 0)" fill="#fff"/>
      </g>
    </g>
  </g>
</svg>
