<svg xmlns="http://www.w3.org/2000/svg" viewBox="0 0 451.45 144.99">
  <defs>
    <style>
      .cls-1 {
        font-size: 68.79px;
        font-family: Viga-Regular, Viga;
      }

      .cls-1, .cls-2 {
        fill: #fff;
      }
    </style>
  </defs>
  <g id="Layer_2" data-name="Layer 2">
    <g id="Layer_1-2" data-name="Layer 1">
      <g>
        <text class="cls-1" transform="translate(158.11 58.88)">WILSON</text>
        <text class="cls-1" transform="translate(157.9 122.36)">WORKS</text>
        <path class="cls-2" d="M58.11,81.35l3.1-7.51L65.62,63.4l3.1,7.34L64.48,81.35l-3.1,7.51L47.81,121.22a5,5,0,0,1-4.61,3.06H38.56a4.46,4.46,0,0,1-4.27-3.15L0,10H14.16a4.48,4.48,0,0,1,4.28,3.16L42.12,90.33l3.1,9.47-3.1,7.67h-1l-2.61-8.81L13.71,17.85a3,3,0,0,0-2.87-2.12H8L14.53,37.6l23.83,76.56.88,3a2,2,0,0,0,1.92,1.43h1.45ZM29.86,13.2,48.65,75.31,66,35.48l38.69,89H101.2a4.48,4.48,0,0,1-4.1-2.69L66,50.34,48,93.27,22.69,10h2.88A4.49,4.49,0,0,1,29.86,13.2Zm72.33,39.1L114,13.2A4.47,4.47,0,0,1,118.25,10h25.56L109.37,123l-1.47-3.27L71.34,35,66.11,23.08,49.3,61.93l-2.61-8.65L64,13.12h2.48a2.7,2.7,0,0,1,2.47,1.62l39.45,91.1L117.86,75l16.65-54.53L136,15.73H122.64a4.46,4.46,0,0,0-4.28,3.17L105.62,60.46Zm24.37-32.16h2.89L107.58,91.47l-34-78.35h3.43a4.49,4.49,0,0,1,4.11,2.69l22,50.69,3.43,8.16,15.68-51.35A4.47,4.47,0,0,1,126.56,20.14Z"/>
      </g>
    </g>
  </g>
</svg>
